<?xml version="1.0" encoding="UTF-8"?>
<svg id="_图层_1" data-name="图层_1" xmlns="http://www.w3.org/2000/svg" viewBox="0 0 283.46 62.36">
  <defs>
    <style>
      .cls-1 {
        fill: #de4e18;
      }

      .cls-1, .cls-2, .cls-3, .cls-4, .cls-5, .cls-6, .cls-7, .cls-8 {
        font-family: ArialMT, Arial;
      }

      .cls-1, .cls-2, .cls-3, .cls-5, .cls-6, .cls-7 {
        font-size: 6px;
      }

      .cls-9, .cls-10, .cls-11, .cls-12, .cls-13, .cls-14, .cls-15 {
        stroke-miterlimit: 10;
      }

      .cls-9, .cls-11, .cls-13 {
        stroke: #ddd922;
      }

      .cls-9, .cls-11, .cls-13, .cls-14 {
        fill: none;
        stroke-width: .25px;
      }

      .cls-10 {
        fill: #ea4f12;
        stroke: #d75726;
      }

      .cls-10, .cls-12, .cls-15 {
        stroke-width: .5px;
      }

      .cls-16 {
        font-family: Arial-BoldItalicMT, Arial;
        font-style: italic;
        font-weight: 700;
      }

      .cls-11 {
        stroke-dasharray: 1.92 1.92;
      }

      .cls-17 {
        font-size: 7px;
      }

      .cls-18 {
        fill: #d52b36;
      }

      .cls-2, .cls-19 {
        fill: #231815;
      }

      .cls-3 {
        fill: #8a8487;
      }

      .cls-12 {
        fill: #c9c8e4;
        opacity: .2;
        stroke: #c9c8e4;
      }

      .cls-4 {
        letter-spacing: 0em;
      }

      .cls-13 {
        stroke-dasharray: 1.93 1.93;
      }

      .cls-14 {
        stroke: #f5f5f5;
      }

      .cls-5 {
        fill: #fff;
      }

      .cls-6 {
        fill: #231916;
      }

      .cls-15 {
        fill: #8a8488;
        stroke: #c1c0c0;
      }

      .cls-20 {
        fill: #fdf6db;
      }
    </style>
  </defs>
  <rect class="cls-20" x="5.08" y="16.46" width="6.76" height="44.35" rx="1.42" ry="1.42"/>
  <g>
    <line class="cls-9" x1="73.85" y1="13.95" x2="73.85" y2="14.95"/>
    <line class="cls-13" x1="73.85" y1="16.87" x2="73.85" y2="54.43"/>
    <line class="cls-9" x1="73.85" y1="55.39" x2="73.85" y2="56.39"/>
  </g>
  <g>
    <line class="cls-9" x1="105.25" y1="14.03" x2="105.25" y2="15.03"/>
    <line class="cls-11" x1="105.25" y1="16.95" x2="105.25" y2="54.43"/>
    <line class="cls-9" x1="105.25" y1="55.39" x2="105.25" y2="56.39"/>
  </g>
  <rect class="cls-12" x="33.68" y="3.76" width="113.23" height="9.92" rx="1.42" ry="1.42"/>
  <rect class="cls-18" x="73.85" y="4.68" width="31.4" height="8.09" rx="1.42" ry="1.42"/>
  <text class="cls-5" transform="translate(85.54 10.87)"><tspan x="0" y="0">G4</tspan></text>
  <rect class="cls-18" x="233.59" y="37.16" width="31.4" height="8.09" rx="1.42" ry="1.42"/>
  <text class="cls-5" transform="translate(245.28 43.36)"><tspan x="0" y="0">G4</tspan></text>
  <text class="cls-3" transform="translate(191.86 15.25)"><tspan x="0" y="0">&lt; threshold</tspan></text>
  <g>
    <line class="cls-14" x1="33.39" y1="19.99" x2="146.63" y2="19.99"/>
    <rect class="cls-15" x="35.98" y="19.14" width="31.4" height="1.7" rx=".85" ry=".85"/>
    <text class="cls-3" transform="translate(17.52 22.14)"><tspan x="0" y="0">SW 1</tspan></text>
  </g>
  <g>
    <line class="cls-14" x1="33.66" y1="26.06" x2="146.89" y2="26.06"/>
    <rect class="cls-15" x="48.78" y="25.21" width="31.4" height="1.7" rx=".85" ry=".85"/>
    <text class="cls-3" transform="translate(17.52 28.21)"><tspan x="0" y="0">SW 2</tspan></text>
  </g>
  <g>
    <line class="cls-14" x1="33.67" y1="38.29" x2="146.9" y2="38.29"/>
    <rect class="cls-10" x="73.85" y="37.44" width="31.4" height="1.7" rx=".85" ry=".85"/>
    <text class="cls-1" transform="translate(17.52 40.34)"><tspan x="0" y="0">SW 4</tspan></text>
  </g>
  <g>
    <line class="cls-14" x1="33.67" y1="32.12" x2="146.9" y2="32.12"/>
    <rect class="cls-10" x="61.33" y="31.27" width="31.4" height="1.7" rx=".85" ry=".85"/>
    <text class="cls-1" transform="translate(17.52 34.27)"><tspan x="0" y="0">SW 3</tspan></text>
  </g>
  <g>
    <line class="cls-14" x1="33.68" y1="44.26" x2="146.91" y2="44.26"/>
    <rect class="cls-10" x="86.4" y="43.41" width="31.4" height="1.7" rx=".85" ry=".85"/>
    <text class="cls-1" transform="translate(17.52 46.41)"><tspan x="0" y="0">SW 5</tspan></text>
  </g>
  <g>
    <line class="cls-14" x1="33.67" y1="50.33" x2="146.9" y2="50.33"/>
    <rect class="cls-15" x="98.93" y="49.47" width="31.4" height="1.7" rx=".85" ry=".85"/>
    <text class="cls-3" transform="translate(17.52 52.47)"><tspan x="0" y="0">SW 6</tspan></text>
  </g>
  <g>
    <line class="cls-14" x1="33.67" y1="56.39" x2="146.9" y2="56.39"/>
    <rect class="cls-15" x="111.46" y="55.54" width="31.4" height="1.7" rx=".85" ry=".85"/>
    <text class="cls-3" transform="translate(17.52 58.54)"><tspan x="0" y="0">SW 7</tspan></text>
  </g>
  <text class="cls-1" transform="translate(191.86 21.72)"><tspan x="0" y="0">≥ threshold</tspan></text>
  <rect class="cls-10" x="180.54" y="18.75" width="8.5" height="1.7" rx=".85" ry=".85"/>
  <rect class="cls-15" x="180.54" y="12.28" width="8.5" height="1.7" rx=".85" ry=".85"/>
  <text class="cls-19" transform="translate(169.96 35.9)"><tspan class="cls-17"><tspan class="cls-16" x="0" y="0">score</tspan><tspan class="cls-8" x="18.68" y="0">:</tspan></tspan><tspan class="cls-7"><tspan x="0" y="7.2" xml:space="preserve">      G4Hunter score for </tspan></tspan><tspan class="cls-17"><tspan class="cls-16" x="0" y="15.6">max_score</tspan><tspan class="cls-4" x="36.58" y="15.6">:</tspan></tspan><tspan class="cls-7"><tspan x="0" y="22.8" xml:space="preserve">      max{Score</tspan></tspan></text>
  <text class="cls-1" transform="translate(208.97 60.7) scale(.58)"><tspan x="0" y="0">SW3</tspan></text>
  <text class="cls-2" transform="translate(216.55 58.7)"><tspan x="0" y="0">, Score</tspan></text>
  <text class="cls-1" transform="translate(235.56 60.7) scale(.58)"><tspan x="0" y="0">SW4</tspan></text>
  <text class="cls-2" transform="translate(243.14 58.7)"><tspan x="0" y="0">, Score</tspan></text>
  <text class="cls-1" transform="translate(262.15 60.7) scale(.58)"><tspan x="0" y="0">SW5</tspan></text>
  <text class="cls-2" transform="translate(269.73 58.7)"><tspan x="0" y="0">}</tspan></text>
  <text class="cls-6" transform="translate(10.01 60.25) rotate(-90)"><tspan x="0" y="0">Sliding windows</tspan></text>
  <text class="cls-2" transform="translate(169.64 8.72)"><tspan x="0" y="0">G4Hunter score:</tspan></text>
</svg>