<?xml version="1.0" encoding="UTF-8"?>
<svg id="Layer_1" data-name="Layer 1" xmlns="http://www.w3.org/2000/svg" viewBox="0 0 634.62 300.22">
  <defs>
    <style>
      .cls-1 {
        stroke-width: 1.31px;
      }

      .cls-1, .cls-2, .cls-3, .cls-4, .cls-5, .cls-6, .cls-7, .cls-8, .cls-9, .cls-10, .cls-11, .cls-12, .cls-13, .cls-14, .cls-15, .cls-16, .cls-17 {
        stroke-miterlimit: 10;
      }

      .cls-1, .cls-2, .cls-3, .cls-4, .cls-7, .cls-8, .cls-12, .cls-13, .cls-14, .cls-15, .cls-16 {
        stroke: #231f20;
      }

      .cls-1, .cls-2, .cls-5 {
        fill: #74629c;
      }

      .cls-2, .cls-3, .cls-4, .cls-5, .cls-6, .cls-8, .cls-9, .cls-10, .cls-11, .cls-12, .cls-14 {
        stroke-width: .65px;
      }

      .cls-3, .cls-6 {
        fill: #e9ac3b;
      }

      .cls-4, .cls-11 {
        fill: #3f7fb6;
      }

      .cls-5, .cls-6, .cls-10, .cls-11 {
        stroke: #fff;
      }

      .cls-18, .cls-8, .cls-19 {
        fill: #231f20;
      }

      .cls-7 {
        fill: #2c7971;
        stroke-width: 1.28px;
      }

      .cls-9 {
        stroke: #f37e53;
        stroke-dasharray: 2.63 1.32;
      }

      .cls-9, .cls-13 {
        fill: none;
      }

      .cls-10, .cls-12 {
        fill: #84a740;
      }

      .cls-20 {
        fill: #f9b086;
      }

      .cls-13 {
        stroke-width: 1.94px;
      }

      .cls-14, .cls-15 {
        fill: #d83959;
      }

      .cls-19 {
        font-size: 15.49px;
      }

      .cls-19, .cls-21, .cls-22, .cls-23 {
        font-family: ArialMT, Arial;
      }

      .cls-24 {
        letter-spacing: -.07em;
      }

      .cls-15, .cls-16 {
        stroke-width: 1.29px;
      }

      .cls-16 {
        fill: #436bb2;
      }

      .cls-21, .cls-22, .cls-23 {
        fill: #fff;
        font-size: 15.49px;
      }

      .cls-17 {
        fill: #be272d;
        stroke: #ed2b4d;
        stroke-width: 1.16px;
      }

      .cls-22 {
        letter-spacing: -.06em;
      }

      .cls-23 {
        letter-spacing: -.02em;
      }
    </style>
  </defs>
  <g>
    <rect class="cls-20" x="549" y="269.78" width="10.24" height="14.63" rx="3.66" ry="3.66"/>
    <rect class="cls-9" x="549" y="269.78" width="10.24" height="14.63" rx="3.66" ry="3.66"/>
  </g>
  <g>
    <rect class="cls-20" x="143.59" y="154.83" width="14.63" height="10.24" rx="3.66" ry="3.66"/>
    <rect class="cls-9" x="143.59" y="154.83" width="14.63" height="10.24" rx="3.66" ry="3.66"/>
  </g>
  <g>
    <rect class="cls-20" x="488.17" y="103.08" width="10.24" height="14.63" rx="3.66" ry="3.66"/>
    <rect class="cls-9" x="488.17" y="103.08" width="10.24" height="14.63" rx="3.66" ry="3.66"/>
  </g>
  <g>
    <rect class="cls-20" x="488.17" y="269.78" width="10.24" height="14.63" rx="3.66" ry="3.66"/>
    <rect class="cls-9" x="488.17" y="269.78" width="10.24" height="14.63" rx="3.66" ry="3.66"/>
  </g>
  <g>
    <rect class="cls-20" x="549" y="60.13" width="10.24" height="14.63" rx="3.66" ry="3.66"/>
    <rect class="cls-9" x="549" y="60.13" width="10.24" height="14.63" rx="3.66" ry="3.66"/>
  </g>
  <polygon class="cls-12" points="144.28 194.2 144.28 186.88 153.05 186.88 156.83 190.54 153.05 194.2 144.28 194.2"/>
  <path class="cls-3" d="M144.28,247.62h9.99c1.41,0,2.56,1.15,2.56,2.56v2.2c0,1.41-1.15,2.56-2.56,2.56h-9.99v-7.32h0Z"/>
  <path class="cls-3" d="M144.28,176.57h9.99c1.41,0,2.56,1.15,2.56,2.56v2.2c0,1.41-1.15,2.56-2.56,2.56h-9.99v-7.32h0Z"/>
  <path class="cls-3" d="M144.28,125.87h9.99c1.41,0,2.56,1.15,2.56,2.56v2.2c0,1.41-1.15,2.56-2.56,2.56h-9.99v-7.32h0Z"/>
  <path class="cls-14" d="M144.28,156.29h9.99c1.41,0,2.56,1.15,2.56,2.56v2.2c0,1.41-1.15,2.56-2.56,2.56h-9.99v-7.32h0Z"/>
  <path class="cls-3" d="M144.28,105.6h9.99c1.41,0,2.56,1.15,2.56,2.56v2.2c0,1.41-1.15,2.56-2.56,2.56h-9.99v-7.32h0Z"/>
  <polygon class="cls-12" points="144.28 244.81 144.28 237.49 153.05 237.49 156.83 241.15 153.05 244.81 144.28 244.81"/>
  <polygon class="cls-12" points="144.28 173.75 144.28 166.43 153.05 166.43 156.83 170.09 153.05 173.75 144.28 173.75"/>
  <polygon class="cls-12" points="144.28 102.78 144.28 95.46 153.05 95.46 156.83 99.12 153.05 102.78 144.28 102.78"/>
  <polygon class="cls-4" points="156.83 265.09 144.28 265.09 144.28 257.76 156.83 257.76 153.01 261.41 156.83 265.09"/>
  <polygon class="cls-4" points="156.83 123.06 144.28 123.06 144.28 115.74 156.83 115.74 153.01 119.38 156.83 123.06"/>
  <path class="cls-2" d="M156.83,196.93h-.3c-1.93,0-3.51,1.58-3.51,3.51v.3c0,1.93,1.58,3.51,3.51,3.51h.3s-12.55,0-12.55,0v-7.32h12.25"/>
  <path class="cls-2" d="M156.83,54.9h-.3c-1.93,0-3.51,1.58-3.51,3.51v.3c0,1.93,1.58,3.51,3.51,3.51h.3s-12.55,0-12.55,0v-7.32h12.25"/>
  <path class="cls-2" d="M156.83,65.04h-.3c-1.93,0-3.51,1.58-3.51,3.51v.3c0,1.93,1.58,3.51,3.51,3.51h.3s-12.55,0-12.55,0v-7.32h12.25"/>
  <path class="cls-2" d="M156.83,75.18h-.3c-1.93,0-3.51,1.58-3.51,3.51v.3c0,1.93,1.58,3.51,3.51,3.51h.3s-12.55,0-12.55,0v-7.32h12.25"/>
  <path class="cls-2" d="M156.83,267.81h-.3c-1.93,0-3.51,1.58-3.51,3.51v.3c0,1.93,1.58,3.51,3.51,3.51h.3s-12.55,0-12.55,0v-7.32h12.25"/>
  <path class="cls-2" d="M156.83,277.95h-.3c-1.93,0-3.51,1.58-3.51,3.51v.3c0,1.93,1.58,3.51,3.51,3.51h.3s-12.55,0-12.55,0v-7.32h12.25"/>
  <path class="cls-2" d="M156.83,288.09h-.3c-1.93,0-3.51,1.58-3.51,3.51v.3c0,1.93,1.58,3.51,3.51,3.51h.3s-12.55,0-12.55,0v-7.32h12.25"/>
  <path class="cls-2" d="M156.83,136.01h-.3c-1.93,0-3.51,1.58-3.51,3.51v.3c0,1.93,1.58,3.51,3.51,3.51h.3s-12.55,0-12.55,0v-7.32h12.25"/>
  <path class="cls-2" d="M156.83,146.15h-.3c-1.93,0-3.51,1.58-3.51,3.51v.3c0,1.93,1.58,3.51,3.51,3.51h.3s-12.55,0-12.55,0v-7.32h12.25"/>
  <path class="cls-2" d="M156.83,85.32h-.3c-1.93,0-3.51,1.58-3.51,3.51v.3c0,1.93,1.58,3.51,3.51,3.51h.3s-12.55,0-12.55,0v-7.32h12.25"/>
  <path class="cls-2" d="M156.83,207.07h-.3c-1.93,0-3.51,1.58-3.51,3.51v.3c0,1.93,1.58,3.51,3.51,3.51h.3s-12.55,0-12.55,0v-7.32h12.25"/>
  <path class="cls-2" d="M156.83,227.35h-.3c-1.93,0-3.51,1.58-3.51,3.51v.3c0,1.93,1.58,3.51,3.51,3.51h.3s-12.55,0-12.55,0v-7.32h12.25"/>
  <rect class="cls-7" x="487.93" y="-105.78" width="39.61" height="252.49" rx="3.64" ry="3.64" transform="translate(528.2 -487.27) rotate(90)"/>
  <text class="cls-19" transform="translate(185.74 150.07) rotate(-20)"><tspan class="cls-24" x="0" y="0">V</tspan><tspan x="9.18" y="0">ariant-centric assessment</tspan><tspan x="52.63" y="25.81">(mode = &apos;s&apos;)</tspan></text>
  <text class="cls-19" transform="translate(192.31 206.18) rotate(20)"><tspan x="0" y="0">Sample-centric assessment</tspan><tspan x="52.34" y="25.81">(mode = &apos;m&apos;)</tspan></text>
  <polygon class="cls-17" points="160.7 164.34 161.13 161.18 158.78 159.03 161.92 158.47 163.24 155.56 164.74 158.38 167.91 158.74 165.7 161.03 166.34 164.16 163.47 162.76 160.7 164.34"/>
  <polygon class="cls-17" points="490.64 100.4 491.08 97.24 488.73 95.09 491.87 94.53 493.19 91.63 494.69 94.44 497.86 94.8 495.65 97.1 496.29 100.22 493.42 98.83 490.64 100.4"/>
  <polygon class="cls-17" points="551.48 58.68 551.91 55.53 549.56 53.37 552.7 52.82 554.02 49.91 555.52 52.72 558.69 53.08 556.48 55.38 557.12 58.5 554.25 57.11 551.48 58.68"/>
  <polygon class="cls-17" points="490.08 267.93 490.52 264.78 488.17 262.62 491.31 262.06 492.63 259.16 494.13 261.97 497.3 262.33 495.09 264.63 495.72 267.75 492.86 266.36 490.08 267.93"/>
  <polygon class="cls-17" points="550.63 267.93 551.06 264.78 548.71 262.62 551.85 262.06 553.17 259.16 554.67 261.97 557.84 262.33 555.63 264.63 556.27 267.75 553.4 266.36 550.63 267.93"/>
  <polygon class="cls-17" points="160.7 225.24 161.13 222.08 158.78 219.93 161.92 219.37 163.24 216.47 164.74 219.28 167.91 219.64 165.7 221.94 166.34 225.06 163.47 223.67 160.7 225.24"/>
  <path class="cls-6" d="M523.41,16.8h9.99c1.41,0,2.56,1.15,2.56,2.56v2.2c0,1.41-1.15,2.56-2.56,2.56h-9.99v-7.32h0Z"/>
  <polygon class="cls-10" points="562.94 24.12 562.94 16.8 571.71 16.8 575.5 20.46 571.71 24.12 562.94 24.12"/>
  <polygon class="cls-11" points="615.03 24.12 602.48 24.12 602.48 16.8 615.03 16.8 611.21 20.45 615.03 24.12"/>
  <path class="cls-5" d="M496.43,16.8h-.3c-1.93,0-3.51,1.58-3.51,3.51v.3c0,1.93,1.58,3.51,3.51,3.51h.3s-12.55,0-12.55,0v-7.32h12.25"/>
  <rect class="cls-8" x="42.42" y="54.9" width="1.2" height="240.51"/>
  <path class="cls-3" d="M43.62,247.54h9.99c1.41,0,2.56,1.15,2.56,2.56v2.2c0,1.41-1.15,2.56-2.56,2.56h-9.99v-7.32h0Z"/>
  <path class="cls-3" d="M43.62,176.57h9.99c1.41,0,2.56,1.15,2.56,2.56v2.2c0,1.41-1.15,2.56-2.56,2.56h-9.99v-7.32h0Z"/>
  <path class="cls-3" d="M43.62,125.87h9.99c1.41,0,2.56,1.15,2.56,2.56v2.2c0,1.41-1.15,2.56-2.56,2.56h-9.99v-7.32h0Z"/>
  <path class="cls-3" d="M43.62,105.6h9.99c1.41,0,2.56,1.15,2.56,2.56v2.2c0,1.41-1.15,2.56-2.56,2.56h-9.99v-7.32h0Z"/>
  <polygon class="cls-12" points="43.62 244.72 43.62 237.4 52.39 237.4 56.17 241.06 52.39 244.72 43.62 244.72"/>
  <polygon class="cls-12" points="43.62 194.03 43.62 186.71 52.39 186.71 56.17 190.37 52.39 194.03 43.62 194.03"/>
  <polygon class="cls-12" points="43.62 173.75 43.62 166.43 52.39 166.43 56.17 170.09 52.39 173.75 43.62 173.75"/>
  <polygon class="cls-12" points="43.62 102.78 43.62 95.46 52.39 95.46 56.17 99.12 52.39 102.78 43.62 102.78"/>
  <polygon class="cls-4" points="56.17 265 43.62 265 43.62 257.68 56.17 257.68 52.35 261.33 56.17 265"/>
  <polygon class="cls-4" points="56.17 123.06 43.62 123.06 43.62 115.74 56.17 115.74 52.35 119.38 56.17 123.06"/>
  <path class="cls-2" d="M56.17,196.84h-.3c-1.93,0-3.51,1.58-3.51,3.51v.3c0,1.93,1.58,3.51,3.51,3.51h.3s-12.55,0-12.55,0v-7.32h12.25"/>
  <path class="cls-2" d="M56.17,54.9h-.3c-1.93,0-3.51,1.58-3.51,3.51v.3c0,1.93,1.58,3.51,3.51,3.51h.3s-12.55,0-12.55,0v-7.32h12.25"/>
  <path class="cls-2" d="M56.17,65.04h-.3c-1.93,0-3.51,1.58-3.51,3.51v.3c0,1.93,1.58,3.51,3.51,3.51h.3s-12.55,0-12.55,0v-7.32h12.25"/>
  <path class="cls-2" d="M56.17,75.18h-.3c-1.93,0-3.51,1.58-3.51,3.51v.3c0,1.93,1.58,3.51,3.51,3.51h.3s-12.55,0-12.55,0v-7.32h12.25"/>
  <path class="cls-2" d="M56.17,267.81h-.3c-1.93,0-3.51,1.58-3.51,3.51v.3c0,1.93,1.58,3.51,3.51,3.51h.3s-12.55,0-12.55,0v-7.32h12.25"/>
  <path class="cls-2" d="M56.17,277.95h-.3c-1.93,0-3.51,1.58-3.51,3.51v.3c0,1.93,1.58,3.51,3.51,3.51h.3s-12.55,0-12.55,0v-7.32h12.25"/>
  <path class="cls-2" d="M56.17,288.09h-.3c-1.93,0-3.51,1.58-3.51,3.51v.3c0,1.93,1.58,3.51,3.51,3.51h.3s-12.55,0-12.55,0v-7.32h12.25"/>
  <path class="cls-2" d="M56.17,136.01h-.3c-1.93,0-3.51,1.58-3.51,3.51v.3c0,1.93,1.58,3.51,3.51,3.51h.3s-12.55,0-12.55,0v-7.32h12.25"/>
  <path class="cls-2" d="M56.17,146.15h-.3c-1.93,0-3.51,1.58-3.51,3.51v.3c0,1.93,1.58,3.51,3.51,3.51h.3s-12.55,0-12.55,0v-7.32h12.25"/>
  <path class="cls-2" d="M56.17,156.29h-.3c-1.93,0-3.51,1.58-3.51,3.51v.3c0,1.93,1.58,3.51,3.51,3.51h.3s-12.55,0-12.55,0v-7.32h12.25"/>
  <path class="cls-2" d="M56.17,85.32h-.3c-1.93,0-3.51,1.58-3.51,3.51v.3c0,1.93,1.58,3.51,3.51,3.51h.3s-12.55,0-12.55,0v-7.32h12.25"/>
  <path class="cls-2" d="M56.17,206.98h-.3c-1.93,0-3.51,1.58-3.51,3.51v.3c0,1.93,1.58,3.51,3.51,3.51h.3s-12.55,0-12.55,0v-7.32h12.25"/>
  <path class="cls-2" d="M56.17,217.12h-.3c-1.93,0-3.51,1.58-3.51,3.51v.3c0,1.93,1.58,3.51,3.51,3.51h.3s-12.55,0-12.55,0v-7.32h12.25"/>
  <path class="cls-2" d="M56.17,227.26h-.3c-1.93,0-3.51,1.58-3.51,3.51v.3c0,1.93,1.58,3.51,3.51,3.51h.3s-12.55,0-12.55,0v-7.32h12.25"/>
  <text class="cls-21" transform="translate(538.62 26.01)"><tspan x="0" y="0">C</tspan></text>
  <text class="cls-21" transform="translate(498.81 26)"><tspan x="0" y="0">G</tspan></text>
  <text class="cls-22" transform="translate(578.66 26.01)"><tspan x="0" y="0">A</tspan></text>
  <text class="cls-23" transform="translate(618.61 26)"><tspan x="0" y="0">T</tspan></text>
  <g>
    <line class="cls-13" x1="77.08" y1="175.16" x2="117.31" y2="175.16"/>
    <polygon class="cls-18" points="115.61 180.95 125.64 175.16 115.61 169.37 115.61 180.95"/>
  </g>
  <g>
    <line class="cls-13" x1="187.52" y1="157.46" x2="372.1" y2="90.28"/>
    <polygon class="cls-18" points="372.49 96.3 379.93 87.43 368.52 85.42 372.49 96.3"/>
  </g>
  <g>
    <line class="cls-13" x1="188.43" y1="212.85" x2="372.99" y2="280.02"/>
    <polygon class="cls-18" points="369.42 284.89 380.83 282.87 373.38 274 369.42 284.89"/>
  </g>
  <polygon class="cls-12" points="527.16 73.72 519.83 73.72 519.83 64.95 523.49 61.17 527.16 64.95 527.16 73.72"/>
  <rect class="cls-8" x="507.9" y="-45.93" width="1.2" height="240.51" transform="translate(434.18 582.82) rotate(-90)"/>
  <path class="cls-3" d="M578.26,63.78h9.99c1.41,0,2.56,1.15,2.56,2.56v2.2c0,1.41-1.15,2.56-2.56,2.56h-9.99v-7.32h0Z" transform="translate(517.1 651.99) rotate(-90)"/>
  <path class="cls-3" d="M506.91,63.78h9.99c1.41,0,2.56,1.15,2.56,2.56v2.2c0,1.41-1.15,2.56-2.56,2.56h-9.99v-7.32h0Z" transform="translate(445.74 580.63) rotate(-90)"/>
  <path class="cls-3" d="M456.6,63.78h9.99c1.41,0,2.56,1.15,2.56,2.56v2.2c0,1.41-1.15,2.56-2.56,2.56h-9.99v-7.32h0Z" transform="translate(395.43 530.32) rotate(-90)"/>
  <path class="cls-3" d="M436.32,63.78h9.99c1.41,0,2.56,1.15,2.56,2.56v2.2c0,1.41-1.15,2.56-2.56,2.56h-9.99v-7.32h0Z" transform="translate(375.16 510.05) rotate(-90)"/>
  <polygon class="cls-12" points="578.06 73.72 570.74 73.72 570.74 64.95 574.4 61.17 578.06 64.95 578.06 73.72"/>
  <polygon class="cls-14" points="557.79 73.72 550.46 73.72 550.46 64.95 554.13 61.17 557.79 64.95 557.79 73.72"/>
  <polygon class="cls-12" points="507.09 73.72 499.77 73.72 499.77 64.95 503.43 61.17 507.09 64.95 507.09 73.72"/>
  <polygon class="cls-12" points="436.12 73.72 428.8 73.72 428.8 64.95 432.46 61.17 436.12 64.95 436.12 73.72"/>
  <polygon class="cls-4" points="598.34 61.17 598.34 73.72 591.02 73.72 591.02 61.17 594.67 64.99 598.34 61.17"/>
  <polygon class="cls-4" points="456.4 61.17 456.4 73.72 449.08 73.72 449.08 61.17 452.73 64.99 456.4 61.17"/>
  <path class="cls-2" d="M530.19,61.17v.3c0,1.93,1.58,3.51,3.51,3.51h.3c1.93,0,3.51-1.58,3.51-3.51v-.3s0,12.55,0,12.55h-7.32v-12.25"/>
  <path class="cls-2" d="M388.25,61.17v.3c0,1.93,1.58,3.51,3.51,3.51h.3c1.93,0,3.51-1.58,3.51-3.51v-.3s0,12.55,0,12.55h-7.32v-12.25"/>
  <path class="cls-2" d="M398.38,61.17v.3c0,1.93,1.58,3.51,3.51,3.51h.3c1.93,0,3.51-1.58,3.51-3.51v-.3s0,12.55,0,12.55h-7.32v-12.25"/>
  <path class="cls-2" d="M408.52,61.17v.3c0,1.93,1.58,3.51,3.51,3.51h.3c1.93,0,3.51-1.58,3.51-3.51v-.3s0,12.55,0,12.55h-7.32v-12.25"/>
  <path class="cls-2" d="M601.16,61.17v.3c0,1.93,1.58,3.51,3.51,3.51h.3c1.93,0,3.51-1.58,3.51-3.51v-.3s0,12.55,0,12.55h-7.32v-12.25"/>
  <path class="cls-2" d="M611.3,61.17v.3c0,1.93,1.58,3.51,3.51,3.51h.3c1.93,0,3.51-1.58,3.51-3.51v-.3s0,12.55,0,12.55h-7.32v-12.25"/>
  <path class="cls-2" d="M621.43,61.17v.3c0,1.93,1.58,3.51,3.51,3.51h.3c1.93,0,3.51-1.58,3.51-3.51v-.3s0,12.55,0,12.55h-7.32v-12.25"/>
  <path class="cls-2" d="M469.35,61.17v.3c0,1.93,1.58,3.51,3.51,3.51h.3c1.93,0,3.51-1.58,3.51-3.51v-.3s0,12.55,0,12.55h-7.32v-12.25"/>
  <path class="cls-2" d="M479.49,61.17v.3c0,1.93,1.58,3.51,3.51,3.51h.3c1.93,0,3.51-1.58,3.51-3.51v-.3s0,12.55,0,12.55h-7.32v-12.25"/>
  <path class="cls-2" d="M489.07,61.17v.3c0,1.93,1.58,3.51,3.51,3.51h.3c1.93,0,3.51-1.58,3.51-3.51v-.3s0,12.55,0,12.55h-7.32v-12.25"/>
  <path class="cls-2" d="M418.66,61.17v.3c0,1.93,1.58,3.51,3.51,3.51h.3c1.93,0,3.51-1.58,3.51-3.51v-.3s0,12.55,0,12.55h-7.32v-12.25"/>
  <path class="cls-2" d="M540.33,61.17v.3c0,1.93,1.58,3.51,3.51,3.51h.3c1.93,0,3.51-1.58,3.51-3.51v-.3s0,12.55,0,12.55h-7.32v-12.25"/>
  <path class="cls-2" d="M560.6,61.17v.3c0,1.93,1.58,3.51,3.51,3.51h.3c1.93,0,3.51-1.58,3.51-3.51v-.3s0,12.55,0,12.55h-7.32v-12.25"/>
  <polygon class="cls-12" points="527.16 117.11 519.83 117.11 519.83 108.34 523.49 104.56 527.16 108.34 527.16 117.11"/>
  <rect class="cls-8" x="507.9" y="-2.55" width="1.2" height="240.51" transform="translate(390.79 626.21) rotate(-90)"/>
  <path class="cls-3" d="M578.26,107.17h9.99c1.41,0,2.56,1.15,2.56,2.56v2.2c0,1.41-1.15,2.56-2.56,2.56h-9.99v-7.32h0Z" transform="translate(473.71 695.37) rotate(-90)"/>
  <path class="cls-3" d="M506.91,107.17h9.99c1.41,0,2.56,1.15,2.56,2.56v2.2c0,1.41-1.15,2.56-2.56,2.56h-9.99v-7.32h0Z" transform="translate(402.35 624.02) rotate(-90)"/>
  <path class="cls-3" d="M456.6,107.17h9.99c1.41,0,2.56,1.15,2.56,2.56v2.2c0,1.41-1.15,2.56-2.56,2.56h-9.99v-7.32h0Z" transform="translate(352.05 573.71) rotate(-90)"/>
  <path class="cls-14" d="M487.02,107.17h9.99c1.41,0,2.56,1.15,2.56,2.56v2.2c0,1.41-1.15,2.56-2.56,2.56h-9.99v-7.32h0Z" transform="translate(382.46 604.13) rotate(-90)"/>
  <path class="cls-3" d="M436.32,107.17h9.99c1.41,0,2.56,1.15,2.56,2.56v2.2c0,1.41-1.15,2.56-2.56,2.56h-9.99v-7.32h0Z" transform="translate(331.77 553.43) rotate(-90)"/>
  <polygon class="cls-12" points="578.06 117.11 570.74 117.11 570.74 108.34 574.4 104.56 578.06 108.34 578.06 117.11"/>
  <polygon class="cls-12" points="507.09 117.11 499.77 117.11 499.77 108.34 503.43 104.56 507.09 108.34 507.09 117.11"/>
  <polygon class="cls-12" points="436.12 117.11 428.8 117.11 428.8 108.34 432.46 104.56 436.12 108.34 436.12 117.11"/>
  <polygon class="cls-4" points="598.34 104.56 598.34 117.11 591.02 117.11 591.02 104.56 594.67 108.37 598.34 104.56"/>
  <polygon class="cls-4" points="456.4 104.56 456.4 117.11 449.08 117.11 449.08 104.56 452.73 108.37 456.4 104.56"/>
  <path class="cls-2" d="M530.19,104.56v.3c0,1.93,1.58,3.51,3.51,3.51h.3c1.93,0,3.51-1.58,3.51-3.51v-.3s0,12.55,0,12.55h-7.32v-12.25"/>
  <path class="cls-2" d="M388.25,104.56v.3c0,1.93,1.58,3.51,3.51,3.51h.3c1.93,0,3.51-1.58,3.51-3.51v-.3s0,12.55,0,12.55h-7.32v-12.25"/>
  <path class="cls-2" d="M398.38,104.56v.3c0,1.93,1.58,3.51,3.51,3.51h.3c1.93,0,3.51-1.58,3.51-3.51v-.3s0,12.55,0,12.55h-7.32v-12.25"/>
  <path class="cls-2" d="M408.52,104.56v.3c0,1.93,1.58,3.51,3.51,3.51h.3c1.93,0,3.51-1.58,3.51-3.51v-.3s0,12.55,0,12.55h-7.32v-12.25"/>
  <path class="cls-2" d="M601.16,104.56v.3c0,1.93,1.58,3.51,3.51,3.51h.3c1.93,0,3.51-1.58,3.51-3.51v-.3s0,12.55,0,12.55h-7.32v-12.25"/>
  <path class="cls-2" d="M611.3,104.56v.3c0,1.93,1.58,3.51,3.51,3.51h.3c1.93,0,3.51-1.58,3.51-3.51v-.3s0,12.55,0,12.55h-7.32v-12.25"/>
  <path class="cls-2" d="M621.43,104.56v.3c0,1.93,1.58,3.51,3.51,3.51h.3c1.93,0,3.51-1.58,3.51-3.51v-.3s0,12.55,0,12.55h-7.32v-12.25"/>
  <path class="cls-2" d="M469.35,104.56v.3c0,1.93,1.58,3.51,3.51,3.51h.3c1.93,0,3.51-1.58,3.51-3.51v-.3s0,12.55,0,12.55h-7.32v-12.25"/>
  <path class="cls-2" d="M479.49,104.56v.3c0,1.93,1.58,3.51,3.51,3.51h.3c1.93,0,3.51-1.58,3.51-3.51v-.3s0,12.55,0,12.55h-7.32v-12.25"/>
  <path class="cls-2" d="M418.66,104.56v.3c0,1.93,1.58,3.51,3.51,3.51h.3c1.93,0,3.51-1.58,3.51-3.51v-.3s0,12.55,0,12.55h-7.32v-12.25"/>
  <path class="cls-2" d="M540.33,104.56v.3c0,1.93,1.58,3.51,3.51,3.51h.3c1.93,0,3.51-1.58,3.51-3.51v-.3s0,12.55,0,12.55h-7.32v-12.25"/>
  <path class="cls-2" d="M560.6,104.56v.3c0,1.93,1.58,3.51,3.51,3.51h.3c1.93,0,3.51-1.58,3.51-3.51v-.3s0,12.55,0,12.55h-7.32v-12.25"/>
  <path class="cls-2" d="M550.46,104.56v.3c0,1.93,1.58,3.51,3.51,3.51h.3c1.93,0,3.51-1.58,3.51-3.51v-.3s0,12.55,0,12.55h-7.32v-12.25"/>
  <polygon class="cls-12" points="527.16 283.81 519.83 283.81 519.83 275.05 523.49 271.26 527.16 275.05 527.16 283.81"/>
  <rect class="cls-8" x="507.9" y="164.16" width="1.2" height="240.51" transform="translate(224.09 792.92) rotate(-90)"/>
  <path class="cls-3" d="M578.26,273.88h9.99c1.41,0,2.56,1.15,2.56,2.56v2.2c0,1.41-1.15,2.56-2.56,2.56h-9.99v-7.32h0Z" transform="translate(307 862.08) rotate(-90)"/>
  <path class="cls-3" d="M506.91,273.88h9.99c1.41,0,2.56,1.15,2.56,2.56v2.2c0,1.41-1.15,2.56-2.56,2.56h-9.99v-7.32h0Z" transform="translate(235.65 790.72) rotate(-90)"/>
  <path class="cls-3" d="M456.6,273.88h9.99c1.41,0,2.56,1.15,2.56,2.56v2.2c0,1.41-1.15,2.56-2.56,2.56h-9.99v-7.32h0Z" transform="translate(185.34 740.42) rotate(-90)"/>
  <path class="cls-14" d="M487.02,273.88h9.99c1.41,0,2.56,1.15,2.56,2.56v2.2c0,1.41-1.15,2.56-2.56,2.56h-9.99v-7.32h0Z" transform="translate(215.76 770.83) rotate(-90)"/>
  <path class="cls-3" d="M436.32,273.88h9.99c1.41,0,2.56,1.15,2.56,2.56v2.2c0,1.41-1.15,2.56-2.56,2.56h-9.99v-7.32h0Z" transform="translate(165.06 720.14) rotate(-90)"/>
  <polygon class="cls-12" points="578.06 283.81 570.74 283.81 570.74 275.05 574.4 271.26 578.06 275.05 578.06 283.81"/>
  <polygon class="cls-14" points="557.79 283.81 550.46 283.81 550.46 275.05 554.13 271.26 557.79 275.05 557.79 283.81"/>
  <polygon class="cls-12" points="507.09 283.81 499.77 283.81 499.77 275.05 503.43 271.26 507.09 275.05 507.09 283.81"/>
  <polygon class="cls-12" points="436.12 283.81 428.8 283.81 428.8 275.05 432.46 271.26 436.12 275.05 436.12 283.81"/>
  <polygon class="cls-4" points="598.34 271.26 598.34 283.81 591.02 283.81 591.02 271.26 594.67 275.08 598.34 271.26"/>
  <polygon class="cls-4" points="456.4 271.26 456.4 283.81 449.08 283.81 449.08 271.26 452.73 275.08 456.4 271.26"/>
  <path class="cls-2" d="M530.19,271.26v.3c0,1.93,1.58,3.51,3.51,3.51h.3c1.93,0,3.51-1.58,3.51-3.51v-.3s0,12.55,0,12.55h-7.32v-12.25"/>
  <path class="cls-2" d="M388.25,271.26v.3c0,1.93,1.58,3.51,3.51,3.51h.3c1.93,0,3.51-1.58,3.51-3.51v-.3s0,12.55,0,12.55h-7.32v-12.25"/>
  <path class="cls-2" d="M398.38,271.26v.3c0,1.93,1.58,3.51,3.51,3.51h.3c1.93,0,3.51-1.58,3.51-3.51v-.3s0,12.55,0,12.55h-7.32v-12.25"/>
  <path class="cls-2" d="M408.52,271.26v.3c0,1.93,1.58,3.51,3.51,3.51h.3c1.93,0,3.51-1.58,3.51-3.51v-.3s0,12.55,0,12.55h-7.32v-12.25"/>
  <path class="cls-2" d="M601.16,271.26v.3c0,1.93,1.58,3.51,3.51,3.51h.3c1.93,0,3.51-1.58,3.51-3.51v-.3s0,12.55,0,12.55h-7.32v-12.25"/>
  <path class="cls-2" d="M611.3,271.26v.3c0,1.93,1.58,3.51,3.51,3.51h.3c1.93,0,3.51-1.58,3.51-3.51v-.3s0,12.55,0,12.55h-7.32v-12.25"/>
  <path class="cls-2" d="M621.43,271.26v.3c0,1.93,1.58,3.51,3.51,3.51h.3c1.93,0,3.51-1.58,3.51-3.51v-.3s0,12.55,0,12.55h-7.32v-12.25"/>
  <path class="cls-2" d="M469.35,271.26v.3c0,1.93,1.58,3.51,3.51,3.51h.3c1.93,0,3.51-1.58,3.51-3.51v-.3s0,12.55,0,12.55h-7.32v-12.25"/>
  <path class="cls-2" d="M479.49,271.26v.3c0,1.93,1.58,3.51,3.51,3.51h.3c1.93,0,3.51-1.58,3.51-3.51v-.3s0,12.55,0,12.55h-7.32v-12.25"/>
  <path class="cls-2" d="M418.66,271.26v.3c0,1.93,1.58,3.51,3.51,3.51h.3c1.93,0,3.51-1.58,3.51-3.51v-.3s0,12.55,0,12.55h-7.32v-12.25"/>
  <path class="cls-2" d="M540.33,271.26v.3c0,1.93,1.58,3.51,3.51,3.51h.3c1.93,0,3.51-1.58,3.51-3.51v-.3s0,12.55,0,12.55h-7.32v-12.25"/>
  <path class="cls-2" d="M560.6,271.26v.3c0,1.93,1.58,3.51,3.51,3.51h.3c1.93,0,3.51-1.58,3.51-3.51v-.3s0,12.55,0,12.55h-7.32v-12.25"/>
  <rect class="cls-1" x="273.29" y="-62.42" width="39.61" height="165.76" rx="3.72" ry="3.72" transform="translate(313.56 -272.63) rotate(90)"/>
  <rect class="cls-16" x="30.07" y="-28.77" width="39.61" height="98.47" rx="3.66" ry="3.66" transform="translate(70.34 -29.42) rotate(90)"/>
  <rect class="cls-15" x="134.86" y="-29.53" width="39.61" height="99.99" rx="3.66" ry="3.66" transform="translate(175.13 -134.2) rotate(90)"/>
  <text class="cls-21" transform="translate(215.87 26.01)"><tspan x="0" y="0">Modes of G4NVHunter</tspan></text>
  <text class="cls-21" transform="translate(13.88 15.27)"><tspan x="0" y="0">Reference</tspan><tspan x="-11.19" y="18.58">G-quadruplex</tspan></text>
  <text class="cls-21" transform="translate(126.38 15.17)"><tspan x="0" y="0">Mutated</tspan><tspan x="-18.94" y="18.58">G-quadruplex</tspan></text>
  <g>
    <rect class="cls-20" x="143.59" y="215.73" width="14.63" height="10.24" rx="3.66" ry="3.66"/>
    <rect class="cls-9" x="143.59" y="215.73" width="14.63" height="10.24" rx="3.66" ry="3.66"/>
  </g>
  <polygon class="cls-14" points="144.28 224.53 144.28 217.21 153.05 217.21 156.83 220.87 153.05 224.53 144.28 224.53"/>
  <rect class="cls-8" x="143.08" y="54.9" width="1.2" height="240.51"/>
  <text class="cls-21" transform="translate(387 25.92)"><tspan x="0" y="0">Nucleotides</tspan></text>
</svg>