<?xml version="1.0" encoding="UTF-8"?>
<svg id="_图层_1" data-name="图层 1" xmlns="http://www.w3.org/2000/svg" viewBox="0 0 283.46 62.36">
  <defs>
    <style>
      .cls-1, .cls-2, .cls-3, .cls-4, .cls-5, .cls-6, .cls-7 {
        stroke-miterlimit: 10;
      }

      .cls-1, .cls-2, .cls-4 {
        stroke: #d8d43f;
      }

      .cls-1, .cls-2, .cls-4, .cls-7 {
        fill: none;
        stroke-width: .25px;
      }

      .cls-2 {
        stroke-dasharray: 1.92 1.92;
      }

      .cls-8 {
        fill: #231f20;
      }

      .cls-8, .cls-9, .cls-10, .cls-11, .cls-12, .cls-13 {
        font-size: 6px;
      }

      .cls-8, .cls-10, .cls-11, .cls-12, .cls-13, .cls-14 {
        font-family: ArialMT, Arial;
      }

      .cls-3 {
        fill: #88838a;
        stroke: #b8b8bb;
      }

      .cls-3, .cls-5, .cls-6 {
        stroke-width: .5px;
      }

      .cls-9, .cls-10 {
        fill: #231915;
      }

      .cls-15 {
        fill: #d73543;
      }

      .cls-4 {
        stroke-dasharray: 1.93 1.93;
      }

      .cls-5 {
        fill: #f05527;
        stroke: #d85c35;
      }

      .cls-6 {
        fill: #bdbfe1;
        opacity: .2;
        stroke: #bdbfe1;
      }

      .cls-11 {
        fill: #e0532a;
      }

      .cls-12 {
        fill: #878389;
      }

      .cls-13 {
        fill: #fff;
      }

      .cls-7 {
        stroke: #efeeee;
      }

      .cls-16 {
        fill: #faefd3;
      }

      .cls-17 {
        font-family: Arial-ItalicMT, Arial;
        font-style: italic;
      }
    </style>
  </defs>
  <rect class="cls-16" x="5.08" y="16.46" width="6.76" height="44.35" rx="1.42" ry="1.42"/>
  <g>
    <line class="cls-1" x1="61.85" y1="13.95" x2="61.85" y2="14.95"/>
    <line class="cls-4" x1="61.85" y1="16.87" x2="61.85" y2="54.43"/>
    <line class="cls-1" x1="61.85" y1="55.39" x2="61.85" y2="56.39"/>
  </g>
  <g>
    <line class="cls-1" x1="117.25" y1="14.03" x2="117.25" y2="15.03"/>
    <line class="cls-2" x1="117.25" y1="16.95" x2="117.25" y2="54.43"/>
    <line class="cls-1" x1="117.25" y1="55.39" x2="117.25" y2="56.39"/>
  </g>
  <rect class="cls-6" x="33.68" y="3.76" width="113.23" height="9.92" rx="1.42" ry="1.42"/>
  <rect class="cls-15" x="61.33" y="4.68" width="56.48" height="8.09" rx="1.42" ry="1.42"/>
  <text class="cls-13" transform="translate(85.54 10.87)"><tspan x="0" y="0">G4</tspan></text>
  <rect class="cls-15" x="233.59" y="37.16" width="31.4" height="8.09" rx="1.42" ry="1.42"/>
  <text class="cls-13" transform="translate(245.28 43.36)"><tspan x="0" y="0">G4</tspan></text>
  <text class="cls-12" transform="translate(191.86 15.25)"><tspan x="0" y="0">&lt; threshold</tspan></text>
  <g>
    <line class="cls-7" x1="33.39" y1="19.99" x2="146.63" y2="19.99"/>
    <rect class="cls-3" x="35.98" y="19.14" width="31.4" height="1.7" rx=".85" ry=".85"/>
    <text class="cls-12" transform="translate(17.52 22.14)"><tspan x="0" y="0">SW 1</tspan></text>
  </g>
  <g>
    <line class="cls-7" x1="33.66" y1="26.06" x2="146.89" y2="26.06"/>
    <rect class="cls-3" x="48.78" y="25.21" width="31.4" height="1.7" rx=".85" ry=".85"/>
    <text class="cls-12" transform="translate(17.52 28.21)"><tspan x="0" y="0">SW 2</tspan></text>
  </g>
  <g>
    <line class="cls-7" x1="33.67" y1="38.29" x2="146.9" y2="38.29"/>
    <rect class="cls-5" x="73.85" y="37.44" width="31.4" height="1.7" rx=".85" ry=".85"/>
    <text class="cls-11" transform="translate(17.52 40.34)"><tspan x="0" y="0">SW 4</tspan></text>
  </g>
  <g>
    <line class="cls-7" x1="33.67" y1="32.12" x2="146.9" y2="32.12"/>
    <rect class="cls-5" x="61.33" y="31.27" width="31.4" height="1.7" rx=".85" ry=".85"/>
    <text class="cls-11" transform="translate(17.52 34.27)"><tspan x="0" y="0">SW 3</tspan></text>
  </g>
  <g>
    <line class="cls-7" x1="33.68" y1="44.26" x2="146.91" y2="44.26"/>
    <rect class="cls-5" x="86.4" y="43.41" width="31.4" height="1.7" rx=".85" ry=".85"/>
    <text class="cls-11" transform="translate(17.52 46.41)"><tspan x="0" y="0">SW 5</tspan></text>
  </g>
  <g>
    <line class="cls-7" x1="33.67" y1="50.33" x2="146.9" y2="50.33"/>
    <rect class="cls-3" x="98.93" y="49.47" width="31.4" height="1.7" rx=".85" ry=".85"/>
    <text class="cls-12" transform="translate(17.52 52.47)"><tspan x="0" y="0">SW 6</tspan></text>
  </g>
  <g>
    <line class="cls-7" x1="33.67" y1="56.39" x2="146.9" y2="56.39"/>
    <rect class="cls-3" x="111.46" y="55.54" width="31.4" height="1.7" rx=".85" ry=".85"/>
    <text class="cls-12" transform="translate(17.52 58.54)"><tspan x="0" y="0">SW 7</tspan></text>
  </g>
  <text class="cls-11" transform="translate(191.86 21.72)"><tspan x="0" y="0">≥ threshold</tspan></text>
  <rect class="cls-5" x="180.54" y="18.75" width="8.5" height="1.7" rx=".85" ry=".85"/>
  <rect class="cls-3" x="180.54" y="12.28" width="8.5" height="1.7" rx=".85" ry=".85"/>
  <text class="cls-9" transform="translate(169.96 35.9)"><tspan class="cls-17" x="0" y="0">score</tspan><tspan class="cls-14" x="14.67" y="0">:</tspan><tspan class="cls-14"><tspan x="0" y="7.2" xml:space="preserve">      G4Hunter score for </tspan></tspan><tspan class="cls-17" x="0" y="14.4">max_score</tspan><tspan class="cls-14" x="29.34" y="14.4">:</tspan><tspan class="cls-14"><tspan x="0" y="21.6" xml:space="preserve">      max{Score</tspan></tspan></text>
  <text class="cls-11" transform="translate(208.97 59.5) scale(.58)"><tspan x="0" y="0">SW3</tspan></text>
  <text class="cls-10" transform="translate(216.55 57.5)"><tspan x="0" y="0">, Score</tspan></text>
  <text class="cls-11" transform="translate(235.56 59.5) scale(.58)"><tspan x="0" y="0">SW4</tspan></text>
  <text class="cls-10" transform="translate(243.14 57.5)"><tspan x="0" y="0">, Score</tspan></text>
  <text class="cls-11" transform="translate(262.15 59.5) scale(.58)"><tspan x="0" y="0">SW5</tspan></text>
  <text class="cls-10" transform="translate(269.73 57.5)"><tspan x="0" y="0">}</tspan></text>
  <text class="cls-8" transform="translate(10.01 60.25) rotate(-90)"><tspan x="0" y="0">Sliding windows</tspan></text>
  <text class="cls-10" transform="translate(169.64 8.72)"><tspan x="0" y="0">G4Hunter score:</tspan></text>
</svg>