<?xml version="1.0" encoding="UTF-8"?>
<svg id="_图层_1" data-name="图层 1" xmlns="http://www.w3.org/2000/svg" viewBox="0 0 246.29 122.74">
  <defs>
    <style>
      .cls-1 {
        fill: #446bb3;
      }

      .cls-1, .cls-2, .cls-3, .cls-4, .cls-5, .cls-6, .cls-7, .cls-8, .cls-9, .cls-10, .cls-11, .cls-12, .cls-13, .cls-14, .cls-15, .cls-16, .cls-17 {
        stroke-miterlimit: 10;
      }

      .cls-1, .cls-2, .cls-3, .cls-6, .cls-7, .cls-9, .cls-11, .cls-12, .cls-13, .cls-14, .cls-16 {
        stroke: #231f20;
      }

      .cls-1, .cls-2, .cls-11, .cls-13 {
        stroke-width: .5px;
      }

      .cls-18, .cls-19, .cls-16 {
        fill: #231f20;
      }

      .cls-18, .cls-20, .cls-21, .cls-22 {
        font-family: ArialMT, Arial;
        font-size: 6px;
      }

      .cls-23 {
        fill: #fab187;
      }

      .cls-2, .cls-3 {
        fill: #d83a59;
      }

      .cls-3, .cls-4, .cls-5, .cls-6, .cls-7, .cls-8, .cls-10, .cls-12, .cls-14, .cls-15, .cls-16, .cls-17 {
        stroke-width: .25px;
      }

      .cls-4, .cls-5, .cls-15, .cls-17 {
        stroke: #fff;
      }

      .cls-4, .cls-14 {
        fill: #e9ac3c;
      }

      .cls-5, .cls-11, .cls-12 {
        fill: #74639d;
      }

      .cls-6, .cls-17 {
        fill: #3f7fb7;
      }

      .cls-7, .cls-15 {
        fill: #85a841;
      }

      .cls-8 {
        fill: #bf272d;
        stroke: #ee2c4d;
      }

      .cls-9 {
        stroke-width: .75px;
      }

      .cls-9, .cls-10 {
        fill: none;
      }

      .cls-10 {
        stroke: #f47e53;
        stroke-dasharray: 1.02 .51;
      }

      .cls-20, .cls-21, .cls-22 {
        fill: #fff;
      }

      .cls-13 {
        fill: #2e7871;
      }

      .cls-24 {
        letter-spacing: -.07em;
      }

      .cls-21 {
        letter-spacing: -.02em;
      }

      .cls-22 {
        letter-spacing: -.06em;
      }
    </style>
  </defs>
  <g>
    <rect class="cls-23" x="213.36" y="105.56" width="3.97" height="5.67" rx="1.42" ry="1.42"/>
    <rect class="cls-10" x="213.36" y="105.56" width="3.97" height="5.67" rx="1.42" ry="1.42"/>
  </g>
  <g>
    <rect class="cls-23" x="56.28" y="61.02" width="5.67" height="3.97" rx="1.42" ry="1.42"/>
    <rect class="cls-10" x="56.28" y="61.02" width="5.67" height="3.97" rx="1.42" ry="1.42"/>
  </g>
  <g>
    <rect class="cls-23" x="189.79" y="40.97" width="3.97" height="5.67" rx="1.42" ry="1.42"/>
    <rect class="cls-10" x="189.79" y="40.97" width="3.97" height="5.67" rx="1.42" ry="1.42"/>
  </g>
  <g>
    <rect class="cls-23" x="189.79" y="105.56" width="3.97" height="5.67" rx="1.42" ry="1.42"/>
    <rect class="cls-10" x="189.79" y="105.56" width="3.97" height="5.67" rx="1.42" ry="1.42"/>
  </g>
  <g>
    <rect class="cls-23" x="213.36" y="24.33" width="3.97" height="5.67" rx="1.42" ry="1.42"/>
    <rect class="cls-10" x="213.36" y="24.33" width="3.97" height="5.67" rx="1.42" ry="1.42"/>
  </g>
  <polygon class="cls-7" points="56.55 76.27 56.55 73.44 59.95 73.44 61.41 74.85 59.95 76.27 56.55 76.27"/>
  <path class="cls-14" d="M56.55,96.97h3.87c.55,0,.99.44.99.99v.85c0,.55-.44.99-.99.99h-3.87v-2.84h0Z"/>
  <path class="cls-14" d="M56.55,69.44h3.87c.55,0,.99.44.99.99v.85c0,.55-.44.99-.99.99h-3.87v-2.84h0Z"/>
  <path class="cls-14" d="M56.55,49.8h3.87c.55,0,.99.44.99.99v.85c0,.55-.44.99-.99.99h-3.87v-2.84h0Z"/>
  <path class="cls-3" d="M56.55,61.58h3.87c.55,0,.99.44.99.99v.85c0,.55-.44.99-.99.99h-3.87v-2.84h0Z"/>
  <path class="cls-14" d="M56.55,41.94h3.87c.55,0,.99.44.99.99v.85c0,.55-.44.99-.99.99h-3.87v-2.84h0Z"/>
  <polygon class="cls-7" points="56.55 95.88 56.55 93.04 59.95 93.04 61.41 94.46 59.95 95.88 56.55 95.88"/>
  <polygon class="cls-7" points="56.55 68.35 56.55 65.51 59.95 65.51 61.41 66.93 59.95 68.35 56.55 68.35"/>
  <polygon class="cls-7" points="56.55 40.85 56.55 38.02 59.95 38.02 61.41 39.43 59.95 40.85 56.55 40.85"/>
  <polygon class="cls-6" points="61.41 103.74 56.55 103.74 56.55 100.9 61.41 100.9 59.93 102.31 61.41 103.74"/>
  <polygon class="cls-6" points="61.41 48.71 56.55 48.71 56.55 45.87 61.41 45.87 59.93 47.29 61.41 48.71"/>
  <path class="cls-12" d="M61.41,77.33h-.12c-.75,0-1.36.61-1.36,1.36v.12c0,.75.61,1.36,1.36,1.36h.12s-4.86,0-4.86,0v-2.84h4.75"/>
  <path class="cls-12" d="M61.41,22.3h-.12c-.75,0-1.36.61-1.36,1.36v.12c0,.75.61,1.36,1.36,1.36h.12s-4.86,0-4.86,0v-2.84h4.75"/>
  <path class="cls-12" d="M61.41,26.23h-.12c-.75,0-1.36.61-1.36,1.36v.12c0,.75.61,1.36,1.36,1.36h.12s-4.86,0-4.86,0v-2.84h4.75"/>
  <path class="cls-12" d="M61.41,30.16h-.12c-.75,0-1.36.61-1.36,1.36v.12c0,.75.61,1.36,1.36,1.36h.12s-4.86,0-4.86,0v-2.84h4.75"/>
  <path class="cls-12" d="M61.41,104.79h-.12c-.75,0-1.36.61-1.36,1.36v.12c0,.75.61,1.36,1.36,1.36h.12s-4.86,0-4.86,0v-2.84h4.75"/>
  <path class="cls-12" d="M61.41,108.72h-.12c-.75,0-1.36.61-1.36,1.36v.12c0,.75.61,1.36,1.36,1.36h.12s-4.86,0-4.86,0v-2.84h4.75"/>
  <path class="cls-12" d="M61.41,112.65h-.12c-.75,0-1.36.61-1.36,1.36v.12c0,.75.61,1.36,1.36,1.36h.12s-4.86,0-4.86,0v-2.84h4.75"/>
  <path class="cls-12" d="M61.41,53.73h-.12c-.75,0-1.36.61-1.36,1.36v.12c0,.75.61,1.36,1.36,1.36h.12s-4.86,0-4.86,0v-2.84h4.75"/>
  <path class="cls-12" d="M61.41,57.66h-.12c-.75,0-1.36.61-1.36,1.36v.12c0,.75.61,1.36,1.36,1.36h.12s-4.86,0-4.86,0v-2.84h4.75"/>
  <path class="cls-12" d="M61.41,34.09h-.12c-.75,0-1.36.61-1.36,1.36v.12c0,.75.61,1.36,1.36,1.36h.12s-4.86,0-4.86,0v-2.84h4.75"/>
  <path class="cls-12" d="M61.41,81.26h-.12c-.75,0-1.36.61-1.36,1.36v.12c0,.75.61,1.36,1.36,1.36h.12s-4.86,0-4.86,0v-2.84h4.75"/>
  <path class="cls-12" d="M61.41,89.11h-.12c-.75,0-1.36.61-1.36,1.36v.12c0,.75.61,1.36,1.36,1.36h.12s-4.86,0-4.86,0v-2.84h4.75"/>
  <rect class="cls-13" x="188.1" y="-40.53" width="15.35" height="98.98" rx="1.42" ry="1.42" transform="translate(204.73 -186.81) rotate(90)"/>
  <text class="cls-18" transform="translate(81.1 56.13) rotate(-20)"><tspan x="0" y="0">Single-</tspan><tspan class="cls-24" x="18.68" y="0">V</tspan><tspan x="22.23" y="0">ariant Mode</tspan><tspan x="11.39" y="10">(mode = &apos;s&apos;)</tspan></text>
  <text class="cls-18" transform="translate(86.37 85.02) rotate(20)"><tspan x="0" y="0">Multi-</tspan><tspan class="cls-24" x="14.67" y="0">V</tspan><tspan x="18.22" y="0">ariant Mode</tspan><tspan x="8.39" y="10">(mode = &apos;m&apos;)</tspan></text>
  <polygon class="cls-8" points="63.37 63.95 63.46 63.27 62.95 62.8 63.63 62.68 63.91 62.06 64.24 62.66 64.92 62.74 64.44 63.24 64.58 63.91 63.96 63.61 63.37 63.95"/>
  <polygon class="cls-8" points="191.2 39.18 191.3 38.5 190.79 38.03 191.47 37.91 191.75 37.29 192.07 37.89 192.76 37.97 192.28 38.47 192.42 39.14 191.8 38.84 191.2 39.18"/>
  <polygon class="cls-8" points="214.77 23.01 214.87 22.33 214.36 21.87 215.03 21.75 215.32 21.12 215.64 21.73 216.32 21.81 215.85 22.3 215.99 22.97 215.37 22.67 214.77 23.01"/>
  <polygon class="cls-8" points="190.98 104.09 191.08 103.41 190.57 102.94 191.25 102.82 191.53 102.2 191.86 102.8 192.54 102.88 192.06 103.37 192.2 104.05 191.58 103.75 190.98 104.09"/>
  <polygon class="cls-8" points="214.44 104.09 214.54 103.41 214.03 102.94 214.71 102.82 214.99 102.2 215.31 102.8 215.99 102.88 215.52 103.37 215.66 104.05 215.04 103.75 214.44 104.09"/>
  <polygon class="cls-8" points="63.37 87.54 63.46 86.86 62.95 86.4 63.63 86.28 63.91 85.66 64.24 86.26 64.92 86.34 64.44 86.83 64.58 87.5 63.96 87.2 63.37 87.54"/>
  <path class="cls-4" d="M202.42,7.54h3.87c.55,0,.99.44.99.99v.85c0,.55-.44.99-.99.99h-3.87v-2.84h0Z"/>
  <polygon class="cls-15" points="217.73 10.38 217.73 7.54 221.13 7.54 222.6 8.96 221.13 10.38 217.73 10.38"/>
  <polygon class="cls-17" points="237.91 10.38 233.05 10.38 233.05 7.54 237.91 7.54 236.43 8.95 237.91 10.38"/>
  <path class="cls-5" d="M191.96,7.54h-.12c-.75,0-1.36.61-1.36,1.36v.12c0,.75.61,1.36,1.36,1.36h.12s-4.86,0-4.86,0v-2.84h4.75"/>
  <rect class="cls-16" x="17.08" y="22.3" width=".47" height="93.18"/>
  <path class="cls-14" d="M17.55,96.94h3.87c.55,0,.99.44.99.99v.85c0,.55-.44.99-.99.99h-3.87v-2.84h0Z"/>
  <path class="cls-14" d="M17.55,69.44h3.87c.55,0,.99.44.99.99v.85c0,.55-.44.99-.99.99h-3.87v-2.84h0Z"/>
  <path class="cls-14" d="M17.55,49.8h3.87c.55,0,.99.44.99.99v.85c0,.55-.44.99-.99.99h-3.87v-2.84h0Z"/>
  <path class="cls-14" d="M17.55,41.94h3.87c.55,0,.99.44.99.99v.85c0,.55-.44.99-.99.99h-3.87v-2.84h0Z"/>
  <polygon class="cls-7" points="17.55 95.85 17.55 93.01 20.95 93.01 22.41 94.43 20.95 95.85 17.55 95.85"/>
  <polygon class="cls-7" points="17.55 76.21 17.55 73.37 20.95 73.37 22.41 74.79 20.95 76.21 17.55 76.21"/>
  <polygon class="cls-7" points="17.55 68.35 17.55 65.51 20.95 65.51 22.41 66.93 20.95 68.35 17.55 68.35"/>
  <polygon class="cls-7" points="17.55 40.85 17.55 38.02 20.95 38.02 22.41 39.43 20.95 40.85 17.55 40.85"/>
  <polygon class="cls-6" points="22.41 103.7 17.55 103.7 17.55 100.87 22.41 100.87 20.93 102.28 22.41 103.7"/>
  <polygon class="cls-6" points="22.41 48.71 17.55 48.71 17.55 45.87 22.41 45.87 20.93 47.29 22.41 48.71"/>
  <path class="cls-12" d="M22.41,77.3h-.12c-.75,0-1.36.61-1.36,1.36v.12c0,.75.61,1.36,1.36,1.36h.12s-4.86,0-4.86,0v-2.84h4.75"/>
  <path class="cls-12" d="M22.41,22.3h-.12c-.75,0-1.36.61-1.36,1.36v.12c0,.75.61,1.36,1.36,1.36h.12s-4.86,0-4.86,0v-2.84h4.75"/>
  <path class="cls-12" d="M22.41,26.23h-.12c-.75,0-1.36.61-1.36,1.36v.12c0,.75.61,1.36,1.36,1.36h.12s-4.86,0-4.86,0v-2.84h4.75"/>
  <path class="cls-12" d="M22.41,30.16h-.12c-.75,0-1.36.61-1.36,1.36v.12c0,.75.61,1.36,1.36,1.36h.12s-4.86,0-4.86,0v-2.84h4.75"/>
  <path class="cls-12" d="M22.41,104.79h-.12c-.75,0-1.36.61-1.36,1.36v.12c0,.75.61,1.36,1.36,1.36h.12s-4.86,0-4.86,0v-2.84h4.75"/>
  <path class="cls-12" d="M22.41,108.72h-.12c-.75,0-1.36.61-1.36,1.36v.12c0,.75.61,1.36,1.36,1.36h.12s-4.86,0-4.86,0v-2.84h4.75"/>
  <path class="cls-12" d="M22.41,112.65h-.12c-.75,0-1.36.61-1.36,1.36v.12c0,.75.61,1.36,1.36,1.36h.12s-4.86,0-4.86,0v-2.84h4.75"/>
  <path class="cls-12" d="M22.41,53.73h-.12c-.75,0-1.36.61-1.36,1.36v.12c0,.75.61,1.36,1.36,1.36h.12s-4.86,0-4.86,0v-2.84h4.75"/>
  <path class="cls-12" d="M22.41,57.66h-.12c-.75,0-1.36.61-1.36,1.36v.12c0,.75.61,1.36,1.36,1.36h.12s-4.86,0-4.86,0v-2.84h4.75"/>
  <path class="cls-12" d="M22.41,61.58h-.12c-.75,0-1.36.61-1.36,1.36v.12c0,.75.61,1.36,1.36,1.36h.12s-4.86,0-4.86,0v-2.84h4.75"/>
  <path class="cls-12" d="M22.41,34.09h-.12c-.75,0-1.36.61-1.36,1.36v.12c0,.75.61,1.36,1.36,1.36h.12s-4.86,0-4.86,0v-2.84h4.75"/>
  <path class="cls-12" d="M22.41,81.23h-.12c-.75,0-1.36.61-1.36,1.36v.12c0,.75.61,1.36,1.36,1.36h.12s-4.86,0-4.86,0v-2.84h4.75"/>
  <path class="cls-12" d="M22.41,85.15h-.12c-.75,0-1.36.61-1.36,1.36v.12c0,.75.61,1.36,1.36,1.36h.12s-4.86,0-4.86,0v-2.84h4.75"/>
  <path class="cls-12" d="M22.41,89.08h-.12c-.75,0-1.36.61-1.36,1.36v.12c0,.75.61,1.36,1.36,1.36h.12s-4.86,0-4.86,0v-2.84h4.75"/>
  <text class="cls-20" transform="translate(208.31 11.11)"><tspan x="0" y="0">C</tspan></text>
  <text class="cls-20" transform="translate(192.89 11.11)"><tspan x="0" y="0">G</tspan></text>
  <text class="cls-22" transform="translate(223.82 11.11)"><tspan x="0" y="0">A</tspan></text>
  <text class="cls-21" transform="translate(239.3 11.11)"><tspan x="0" y="0">T</tspan></text>
  <g>
    <line class="cls-9" x1="30.51" y1="68.9" x2="46.1" y2="68.9"/>
    <polygon class="cls-19" points="45.44 71.14 49.33 68.9 45.44 66.65 45.44 71.14"/>
  </g>
  <g>
    <line class="cls-9" x1="73.3" y1="62.04" x2="144.82" y2="36.01"/>
    <polygon class="cls-19" points="144.97 38.34 147.85 34.91 143.43 34.13 144.97 38.34"/>
  </g>
  <g>
    <line class="cls-9" x1="73.66" y1="83.5" x2="145.16" y2="109.52"/>
    <polygon class="cls-19" points="143.78 111.41 148.2 110.63 145.31 107.19 143.78 111.41"/>
  </g>
  <polygon class="cls-7" points="204.89 29.59 202.06 29.59 202.06 26.2 203.47 24.73 204.89 26.2 204.89 29.59"/>
  <rect class="cls-16" x="197.43" y="-16.76" width=".47" height="93.18" transform="translate(167.84 227.49) rotate(-90)"/>
  <path class="cls-14" d="M224.69,25.74h3.87c.55,0,.99.44.99.99v.85c0,.55-.44.99-.99.99h-3.87v-2.84h0Z" transform="translate(199.96 254.29) rotate(-90)"/>
  <path class="cls-14" d="M197.05,25.74h3.87c.55,0,.99.44.99.99v.85c0,.55-.44.99-.99.99h-3.87v-2.84h0Z" transform="translate(172.32 226.64) rotate(-90)"/>
  <path class="cls-14" d="M177.56,25.74h3.87c.55,0,.99.44.99.99v.85c0,.55-.44.99-.99.99h-3.87v-2.84h0Z" transform="translate(152.83 207.15) rotate(-90)"/>
  <path class="cls-14" d="M169.7,25.74h3.87c.55,0,.99.44.99.99v.85c0,.55-.44.99-.99.99h-3.87v-2.84h0Z" transform="translate(144.97 199.29) rotate(-90)"/>
  <polygon class="cls-7" points="224.62 29.59 221.78 29.59 221.78 26.2 223.2 24.73 224.62 26.2 224.62 29.59"/>
  <polygon class="cls-3" points="216.76 29.59 213.92 29.59 213.92 26.2 215.34 24.73 216.76 26.2 216.76 29.59"/>
  <polygon class="cls-7" points="197.12 29.59 194.28 29.59 194.28 26.2 195.7 24.73 197.12 26.2 197.12 29.59"/>
  <polygon class="cls-7" points="169.62 29.59 166.79 29.59 166.79 26.2 168.2 24.73 169.62 26.2 169.62 29.59"/>
  <polygon class="cls-6" points="232.47 24.73 232.47 29.59 229.64 29.59 229.64 24.73 231.05 26.21 232.47 24.73"/>
  <polygon class="cls-6" points="177.48 24.73 177.48 29.59 174.64 29.59 174.64 24.73 176.06 26.21 177.48 24.73"/>
  <path class="cls-12" d="M206.07,24.73v.12c0,.75.61,1.36,1.36,1.36h.12c.75,0,1.36-.61,1.36-1.36v-.12s0,4.86,0,4.86h-2.84v-4.75"/>
  <path class="cls-12" d="M151.07,24.73v.12c0,.75.61,1.36,1.36,1.36h.12c.75,0,1.36-.61,1.36-1.36v-.12s0,4.86,0,4.86h-2.84v-4.75"/>
  <path class="cls-12" d="M155,24.73v.12c0,.75.61,1.36,1.36,1.36h.12c.75,0,1.36-.61,1.36-1.36v-.12s0,4.86,0,4.86h-2.84v-4.75"/>
  <path class="cls-12" d="M158.93,24.73v.12c0,.75.61,1.36,1.36,1.36h.12c.75,0,1.36-.61,1.36-1.36v-.12s0,4.86,0,4.86h-2.84v-4.75"/>
  <path class="cls-12" d="M233.56,24.73v.12c0,.75.61,1.36,1.36,1.36h.12c.75,0,1.36-.61,1.36-1.36v-.12s0,4.86,0,4.86h-2.84v-4.75"/>
  <path class="cls-12" d="M237.49,24.73v.12c0,.75.61,1.36,1.36,1.36h.12c.75,0,1.36-.61,1.36-1.36v-.12s0,4.86,0,4.86h-2.84v-4.75"/>
  <path class="cls-12" d="M241.42,24.73v.12c0,.75.61,1.36,1.36,1.36h.12c.75,0,1.36-.61,1.36-1.36v-.12s0,4.86,0,4.86h-2.84v-4.75"/>
  <path class="cls-12" d="M182.5,24.73v.12c0,.75.61,1.36,1.36,1.36h.12c.75,0,1.36-.61,1.36-1.36v-.12s0,4.86,0,4.86h-2.84v-4.75"/>
  <path class="cls-12" d="M186.43,24.73v.12c0,.75.61,1.36,1.36,1.36h.12c.75,0,1.36-.61,1.36-1.36v-.12s0,4.86,0,4.86h-2.84v-4.75"/>
  <path class="cls-12" d="M190.14,24.73v.12c0,.75.61,1.36,1.36,1.36h.12c.75,0,1.36-.61,1.36-1.36v-.12s0,4.86,0,4.86h-2.84v-4.75"/>
  <path class="cls-12" d="M162.86,24.73v.12c0,.75.61,1.36,1.36,1.36h.12c.75,0,1.36-.61,1.36-1.36v-.12s0,4.86,0,4.86h-2.84v-4.75"/>
  <path class="cls-12" d="M209.99,24.73v.12c0,.75.61,1.36,1.36,1.36h.12c.75,0,1.36-.61,1.36-1.36v-.12s0,4.86,0,4.86h-2.84v-4.75"/>
  <path class="cls-12" d="M217.85,24.73v.12c0,.75.61,1.36,1.36,1.36h.12c.75,0,1.36-.61,1.36-1.36v-.12s0,4.86,0,4.86h-2.84v-4.75"/>
  <polygon class="cls-7" points="204.89 46.4 202.06 46.4 202.06 43.01 203.47 41.54 204.89 43.01 204.89 46.4"/>
  <rect class="cls-16" x="197.43" y=".05" width=".47" height="93.18" transform="translate(151.03 244.3) rotate(-90)"/>
  <path class="cls-14" d="M224.69,42.55h3.87c.55,0,.99.44.99.99v.85c0,.55-.44.99-.99.99h-3.87v-2.84h0Z" transform="translate(183.15 271.1) rotate(-90)"/>
  <path class="cls-14" d="M197.05,42.55h3.87c.55,0,.99.44.99.99v.85c0,.55-.44.99-.99.99h-3.87v-2.84h0Z" transform="translate(155.51 243.45) rotate(-90)"/>
  <path class="cls-14" d="M177.56,42.55h3.87c.55,0,.99.44.99.99v.85c0,.55-.44.99-.99.99h-3.87v-2.84h0Z" transform="translate(136.02 223.96) rotate(-90)"/>
  <path class="cls-3" d="M189.34,42.55h3.87c.55,0,.99.44.99.99v.85c0,.55-.44.99-.99.99h-3.87v-2.84h0Z" transform="translate(147.8 235.75) rotate(-90)"/>
  <path class="cls-14" d="M169.7,42.55h3.87c.55,0,.99.44.99.99v.85c0,.55-.44.99-.99.99h-3.87v-2.84h0Z" transform="translate(128.16 216.1) rotate(-90)"/>
  <polygon class="cls-7" points="224.62 46.4 221.78 46.4 221.78 43.01 223.2 41.54 224.62 43.01 224.62 46.4"/>
  <polygon class="cls-7" points="197.12 46.4 194.28 46.4 194.28 43.01 195.7 41.54 197.12 43.01 197.12 46.4"/>
  <polygon class="cls-7" points="169.62 46.4 166.79 46.4 166.79 43.01 168.2 41.54 169.62 43.01 169.62 46.4"/>
  <polygon class="cls-6" points="232.47 41.54 232.47 46.4 229.64 46.4 229.64 41.54 231.05 43.02 232.47 41.54"/>
  <polygon class="cls-6" points="177.48 41.54 177.48 46.4 174.64 46.4 174.64 41.54 176.06 43.02 177.48 41.54"/>
  <path class="cls-12" d="M206.07,41.54v.12c0,.75.61,1.36,1.36,1.36h.12c.75,0,1.36-.61,1.36-1.36v-.12s0,4.86,0,4.86h-2.84v-4.75"/>
  <path class="cls-12" d="M151.07,41.54v.12c0,.75.61,1.36,1.36,1.36h.12c.75,0,1.36-.61,1.36-1.36v-.12s0,4.86,0,4.86h-2.84v-4.75"/>
  <path class="cls-12" d="M155,41.54v.12c0,.75.61,1.36,1.36,1.36h.12c.75,0,1.36-.61,1.36-1.36v-.12s0,4.86,0,4.86h-2.84v-4.75"/>
  <path class="cls-12" d="M158.93,41.54v.12c0,.75.61,1.36,1.36,1.36h.12c.75,0,1.36-.61,1.36-1.36v-.12s0,4.86,0,4.86h-2.84v-4.75"/>
  <path class="cls-12" d="M233.56,41.54v.12c0,.75.61,1.36,1.36,1.36h.12c.75,0,1.36-.61,1.36-1.36v-.12s0,4.86,0,4.86h-2.84v-4.75"/>
  <path class="cls-12" d="M237.49,41.54v.12c0,.75.61,1.36,1.36,1.36h.12c.75,0,1.36-.61,1.36-1.36v-.12s0,4.86,0,4.86h-2.84v-4.75"/>
  <path class="cls-12" d="M241.42,41.54v.12c0,.75.61,1.36,1.36,1.36h.12c.75,0,1.36-.61,1.36-1.36v-.12s0,4.86,0,4.86h-2.84v-4.75"/>
  <path class="cls-12" d="M182.5,41.54v.12c0,.75.61,1.36,1.36,1.36h.12c.75,0,1.36-.61,1.36-1.36v-.12s0,4.86,0,4.86h-2.84v-4.75"/>
  <path class="cls-12" d="M186.43,41.54v.12c0,.75.61,1.36,1.36,1.36h.12c.75,0,1.36-.61,1.36-1.36v-.12s0,4.86,0,4.86h-2.84v-4.75"/>
  <path class="cls-12" d="M162.86,41.54v.12c0,.75.61,1.36,1.36,1.36h.12c.75,0,1.36-.61,1.36-1.36v-.12s0,4.86,0,4.86h-2.84v-4.75"/>
  <path class="cls-12" d="M209.99,41.54v.12c0,.75.61,1.36,1.36,1.36h.12c.75,0,1.36-.61,1.36-1.36v-.12s0,4.86,0,4.86h-2.84v-4.75"/>
  <path class="cls-12" d="M217.85,41.54v.12c0,.75.61,1.36,1.36,1.36h.12c.75,0,1.36-.61,1.36-1.36v-.12s0,4.86,0,4.86h-2.84v-4.75"/>
  <path class="cls-12" d="M213.92,41.54v.12c0,.75.61,1.36,1.36,1.36h.12c.75,0,1.36-.61,1.36-1.36v-.12s0,4.86,0,4.86h-2.84v-4.75"/>
  <polygon class="cls-7" points="204.89 110.99 202.06 110.99 202.06 107.6 203.47 106.13 204.89 107.6 204.89 110.99"/>
  <rect class="cls-16" x="197.43" y="64.63" width=".47" height="93.18" transform="translate(86.44 308.89) rotate(-90)"/>
  <path class="cls-14" d="M224.69,107.14h3.87c.55,0,.99.44.99.99v.85c0,.55-.44.99-.99.99h-3.87v-2.84h0Z" transform="translate(118.56 335.69) rotate(-90)"/>
  <path class="cls-14" d="M197.05,107.14h3.87c.55,0,.99.44.99.99v.85c0,.55-.44.99-.99.99h-3.87v-2.84h0Z" transform="translate(90.92 308.04) rotate(-90)"/>
  <path class="cls-14" d="M177.56,107.14h3.87c.55,0,.99.44.99.99v.85c0,.55-.44.99-.99.99h-3.87v-2.84h0Z" transform="translate(71.43 288.55) rotate(-90)"/>
  <path class="cls-3" d="M189.34,107.14h3.87c.55,0,.99.44.99.99v.85c0,.55-.44.99-.99.99h-3.87v-2.84h0Z" transform="translate(83.21 300.33) rotate(-90)"/>
  <path class="cls-14" d="M169.7,107.14h3.87c.55,0,.99.44.99.99v.85c0,.55-.44.99-.99.99h-3.87v-2.84h0Z" transform="translate(63.57 280.69) rotate(-90)"/>
  <polygon class="cls-7" points="224.62 110.99 221.78 110.99 221.78 107.6 223.2 106.13 224.62 107.6 224.62 110.99"/>
  <polygon class="cls-3" points="216.76 110.99 213.92 110.99 213.92 107.6 215.34 106.13 216.76 107.6 216.76 110.99"/>
  <polygon class="cls-7" points="197.12 110.99 194.28 110.99 194.28 107.6 195.7 106.13 197.12 107.6 197.12 110.99"/>
  <polygon class="cls-7" points="169.62 110.99 166.79 110.99 166.79 107.6 168.2 106.13 169.62 107.6 169.62 110.99"/>
  <polygon class="cls-6" points="232.47 106.13 232.47 110.99 229.64 110.99 229.64 106.13 231.05 107.61 232.47 106.13"/>
  <polygon class="cls-6" points="177.48 106.13 177.48 110.99 174.64 110.99 174.64 106.13 176.06 107.61 177.48 106.13"/>
  <path class="cls-12" d="M206.07,106.13v.12c0,.75.61,1.36,1.36,1.36h.12c.75,0,1.36-.61,1.36-1.36v-.12s0,4.86,0,4.86h-2.84v-4.75"/>
  <path class="cls-12" d="M151.07,106.13v.12c0,.75.61,1.36,1.36,1.36h.12c.75,0,1.36-.61,1.36-1.36v-.12s0,4.86,0,4.86h-2.84v-4.75"/>
  <path class="cls-12" d="M155,106.13v.12c0,.75.61,1.36,1.36,1.36h.12c.75,0,1.36-.61,1.36-1.36v-.12s0,4.86,0,4.86h-2.84v-4.75"/>
  <path class="cls-12" d="M158.93,106.13v.12c0,.75.61,1.36,1.36,1.36h.12c.75,0,1.36-.61,1.36-1.36v-.12s0,4.86,0,4.86h-2.84v-4.75"/>
  <path class="cls-12" d="M233.56,106.13v.12c0,.75.61,1.36,1.36,1.36h.12c.75,0,1.36-.61,1.36-1.36v-.12s0,4.86,0,4.86h-2.84v-4.75"/>
  <path class="cls-12" d="M237.49,106.13v.12c0,.75.61,1.36,1.36,1.36h.12c.75,0,1.36-.61,1.36-1.36v-.12s0,4.86,0,4.86h-2.84v-4.75"/>
  <path class="cls-12" d="M241.42,106.13v.12c0,.75.61,1.36,1.36,1.36h.12c.75,0,1.36-.61,1.36-1.36v-.12s0,4.86,0,4.86h-2.84v-4.75"/>
  <path class="cls-12" d="M182.5,106.13v.12c0,.75.61,1.36,1.36,1.36h.12c.75,0,1.36-.61,1.36-1.36v-.12s0,4.86,0,4.86h-2.84v-4.75"/>
  <path class="cls-12" d="M186.43,106.13v.12c0,.75.61,1.36,1.36,1.36h.12c.75,0,1.36-.61,1.36-1.36v-.12s0,4.86,0,4.86h-2.84v-4.75"/>
  <path class="cls-12" d="M162.86,106.13v.12c0,.75.61,1.36,1.36,1.36h.12c.75,0,1.36-.61,1.36-1.36v-.12s0,4.86,0,4.86h-2.84v-4.75"/>
  <path class="cls-12" d="M209.99,106.13v.12c0,.75.61,1.36,1.36,1.36h.12c.75,0,1.36-.61,1.36-1.36v-.12s0,4.86,0,4.86h-2.84v-4.75"/>
  <path class="cls-12" d="M217.85,106.13v.12c0,.75.61,1.36,1.36,1.36h.12c.75,0,1.36-.61,1.36-1.36v-.12s0,4.86,0,4.86h-2.84v-4.75"/>
  <rect class="cls-11" x="105.55" y="-22.17" width="15.35" height="62.26" rx="1.42" ry="1.42" transform="translate(122.18 -104.26) rotate(90)"/>
  <rect class="cls-1" x="12.3" y="-10.12" width="15.35" height="38.15" rx="1.42" ry="1.42" transform="translate(28.94 -11.02) rotate(90)"/>
  <rect class="cls-2" x="52.9" y="-10.41" width="15.35" height="38.74" rx="1.42" ry="1.42" transform="translate(69.53 -51.61) rotate(90)"/>
  <text class="cls-20" transform="translate(82.29 11.11)"><tspan x="0" y="0">Mode of G4SNVHunter</tspan></text>
  <text class="cls-20" transform="translate(6.03 6.95)"><tspan x="0" y="0">Reference</tspan><tspan x="-4.34" y="7.2">G-quadruplex</tspan></text>
  <text class="cls-20" transform="translate(49.61 6.91)"><tspan x="0" y="0">Mutated</tspan><tspan x="-7.34" y="7.2">G-quadruplex</tspan></text>
  <g>
    <rect class="cls-23" x="56.28" y="84.62" width="5.67" height="3.97" rx="1.42" ry="1.42"/>
    <rect class="cls-10" x="56.28" y="84.62" width="5.67" height="3.97" rx="1.42" ry="1.42"/>
  </g>
  <polygon class="cls-3" points="56.55 88.02 56.55 85.19 59.95 85.19 61.41 86.61 59.95 88.02 56.55 88.02"/>
  <rect class="cls-16" x="56.08" y="22.3" width=".47" height="93.18"/>
  <text class="cls-20" transform="translate(149.57 11.07)"><tspan x="0" y="0">Nucleobase</tspan></text>
</svg>